<?xml version="1.0" encoding="UTF-8" standalone="no"?><!DOCTYPE svg PUBLIC "-//W3C//DTD SVG 1.1//EN" "http://www.w3.org/Graphics/SVG/1.1/DTD/svg11.dtd"><svg width="100%" height="100%" viewBox="0 0 1000 500" version="1.1" xmlns="http://www.w3.org/2000/svg" xmlns:xlink="http://www.w3.org/1999/xlink" xml:space="preserve" xmlns:serif="http://www.serif.com/" style="fill-rule:evenodd;clip-rule:evenodd;stroke-linejoin:round;stroke-miterlimit:2;"><path d="M376.809,350.24l0,-61.171l62.653,16.004l0,29.427c-23.639,3.769 -43.536,9.508 -62.653,15.74Zm62.653,1.639l0,44.45l-62.653,-0l0,-30.695c19.438,-5.378 39.683,-10.384 62.653,-13.755Z" style="fill:#cc3e34;"/><path d="M623.079,350.24c-19.117,-6.232 -39.014,-11.971 -62.653,-15.74l-0,-29.427l62.653,-16.004l-0,61.171Zm-62.653,1.639c22.97,3.371 43.216,8.377 62.653,13.755l-0,30.695l-62.653,0l-0,-44.45Z" style="fill:#e6ad21;"/><path d="M494.471,334.514c-57.384,0.217 -101.383,14.044 -198.091,39.188c-99.758,25.937 -212.668,-9.707 -212.668,-9.707l-10.212,-7.117c48.083,10.045 61.718,-13.097 61.718,-13.097c23.432,10.153 56.212,20.576 123.007,20.576c55.353,0 78.199,-13.64 120.385,-27.862c48.878,-16.478 71.085,-27.443 115.861,-28.26l0,26.279Zm10.917,-26.28c44.795,0.813 67.002,11.78 115.89,28.261c42.186,14.222 65.032,27.862 120.385,27.862c66.795,0 99.576,-10.423 123.007,-20.576c0,0 13.635,23.142 61.718,13.097l-10.212,7.117c0,0 -112.91,35.644 -212.668,9.707c-96.724,-25.149 -140.721,-38.976 -198.12,-39.188l0,-26.28Z" style="fill:#4586e1;"/><path d="M422.627,412.76l-45.818,0l0,-11.455l57.272,0l0,28.636l-45.818,0l0,5.727l45.818,0l0,11.455l-57.272,0l0,-28.636l45.818,0l0,-5.727Zm17.181,17.181l0,-28.636l57.272,0l0,45.818l-57.272,0l0,-11.455l45.818,0l0,-5.727l-45.818,0Zm45.818,-17.181l-34.363,0l0,5.727l34.363,0l0,-5.727Zm17.182,17.181l0,-28.636l57.272,0l-0,11.455l-45.818,0l-0,5.727l45.818,0l-0,28.636l-57.272,0l-0,-11.455l45.817,0l0,-5.727l-45.817,0Zm62.999,5.727l0,-34.363l11.455,0l-0,22.909l28.636,0l0,-22.909l11.454,0l0,22.909l5.727,0l0,11.454l-5.727,0l0,11.455l-11.454,0l0,-11.455l-40.091,0Zm-145.055,-239.116c0,0 -24.968,-1.185 -32.388,-1.978c-1.316,-0.07 -10.055,-0.828 -10.09,-1.022c0.035,-0.209 8.774,-0.952 10.09,-1.022c7.42,-0.797 32.407,-1.977 32.407,-1.977c12.378,-1.092 24.775,-2.207 35.004,-4.393c13.992,-3.298 25.85,-9.878 31.242,-23.018c4.857,-12.064 8.081,-30.692 9.691,-50.412l0.538,-7.125c0.627,-7.234 1.076,-18.311 1.44,-30.092c0.035,-1.007 1.111,-19.507 1.266,-23.513c0.155,4.006 1.231,22.506 1.265,23.513c0.364,11.766 0.817,22.858 1.44,30.092l0.519,7.106c1.614,19.716 4.857,38.344 9.691,50.408c5.396,13.144 17.255,19.724 31.246,23.021c10.23,2.203 22.607,3.298 35.004,4.393c-0,0 25.003,1.2 32.422,1.997c1.32,0.07 10.056,0.809 10.091,1.022c-0.035,0.209 -8.771,0.952 -10.091,1.022c-7.419,0.793 -32.437,1.958 -32.437,1.958c-12.382,1.111 -24.779,2.207 -35.008,4.393c-13.992,3.298 -25.851,9.878 -31.242,23.018c-4.854,12.064 -8.082,24.222 -9.692,43.942c-0,0 -3.061,36.298 -3.216,40.3c-0.139,-4.002 -3.251,-40.281 -3.251,-40.281c-1.614,-19.719 -4.854,-31.878 -9.692,-43.942c-5.391,-13.14 -17.25,-19.72 -31.241,-23.021c-10.23,-2.202 -22.611,-3.298 -35.008,-4.389Z" style="fill:#2a303a;"/></svg>