<?xml version="1.0" encoding="UTF-8"?>
<svg xmlns="http://www.w3.org/2000/svg" xmlns:xlink="http://www.w3.org/1999/xlink" viewBox="0 0 874.67 874.67">
  <defs>
    <style>
      .cls-1 {
        fill: url(#linear-gradient-2);
      }

      .cls-2 {
        fill: #424e58;
      }

      .cls-3 {
        fill: url(#linear-gradient-6);
      }

      .cls-4 {
        isolation: isolate;
      }

      .cls-5 {
        fill: #d81313;
      }

      .cls-6 {
        fill: url(#linear-gradient-11);
      }

      .cls-7 {
        fill: url(#linear-gradient-10);
      }

      .cls-8 {
        fill: url(#linear-gradient-5);
      }

      .cls-9 {
        fill: none;
      }

      .cls-10 {
        fill: url(#linear-gradient-7);
      }

      .cls-11 {
        fill: url(#linear-gradient-9);
      }

      .cls-12 {
        fill: url(#linear-gradient-3);
      }

      .cls-13 {
        fill: url(#linear-gradient);
      }

      .cls-14 {
        fill: url(#linear-gradient-4);
      }

      .cls-15 {
        fill: url(#linear-gradient-8);
      }
    </style>
    <linearGradient id="linear-gradient" x1="437.83" y1="748.42" x2="437.83" y2="103.33" gradientUnits="userSpaceOnUse">
      <stop offset=".17" stop-color="#d81313"/>
      <stop offset=".82" stop-color="#ef5353"/>
    </linearGradient>
    <linearGradient id="linear-gradient-2" x1="437.33" y1="762.33" x2="437.33" y2="103.33" gradientUnits="userSpaceOnUse">
      <stop offset=".17" stop-color="#d81313"/>
      <stop offset=".82" stop-color="#ef5353"/>
    </linearGradient>
    <linearGradient id="linear-gradient-3" x1="574.32" y1="672.81" x2="574.32" y2="198.67" gradientUnits="userSpaceOnUse">
      <stop offset=".08" stop-color="#d81313"/>
      <stop offset=".92" stop-color="#ef5353"/>
    </linearGradient>
    <linearGradient id="linear-gradient-4" x1="462.86" y1="672.85" x2="462.86" y2="194.58" xlink:href="#linear-gradient-3"/>
    <linearGradient id="linear-gradient-5" x1="239.35" y1="673.43" x2="239.35" y2="201.8" xlink:href="#linear-gradient-3"/>
    <linearGradient id="linear-gradient-6" x1="292.45" y1="247.58" x2="401.21" y2="257.09" gradientUnits="userSpaceOnUse">
      <stop offset=".21" stop-color="#000"/>
      <stop offset=".39" stop-color="#273139"/>
      <stop offset=".85" stop-color="#000"/>
    </linearGradient>
    <linearGradient id="linear-gradient-7" x1="282.5" y1="344.2" x2="415.78" y2="355.87" gradientUnits="userSpaceOnUse">
      <stop offset=".46" stop-color="#000"/>
      <stop offset=".78" stop-color="#273139"/>
    </linearGradient>
    <linearGradient id="linear-gradient-8" x1="496.33" y1="406.33" x2="496.33" y2="544.33" gradientUnits="userSpaceOnUse">
      <stop offset="0" stop-color="#000"/>
      <stop offset="1" stop-color="#424e58"/>
    </linearGradient>
    <linearGradient id="linear-gradient-9" x1="496.33" y1="589.33" x2="496.33" y2="529.33" gradientUnits="userSpaceOnUse">
      <stop offset="0" stop-color="#000"/>
      <stop offset="1" stop-color="#424e58"/>
    </linearGradient>
    <linearGradient id="linear-gradient-10" x1="496.33" y1="415.33" x2="496.33" y2="365.33" xlink:href="#linear-gradient-9"/>
    <linearGradient id="linear-gradient-11" x1="496.05" y1="332.33" x2="496.05" y2="311.33" gradientTransform="translate(.28)" xlink:href="#linear-gradient-9"/>
  </defs>
  <g id="circle">
    <g id="_2953" data-name="2953">
      <path class="cls-5" d="m326.93,700.43c1.78-4.32,3.56-8.65,5.33-12.97-20.01-8.26-39.28-18.96-57.35-32.11-2.74,3.78-5.49,7.56-8.23,11.35-4.12,5.67-8.23,11.35-12.35,17.02,5.09,3.7,10.26,7.23,15.51,10.59,3.77-5.91,7.54-11.82,11.31-17.73,14.69,9.4,30.01,17.35,45.78,23.85Zm30.23-11.41c-2.09,6.69-4.18,13.39-6.27,20.08,5.39,1.69,10.81,3.21,16.27,4.58,1.7-6.8,3.4-13.61,5.1-20.41-.18-.05-.36-.09-.54-.14,16.33,4.12,32.96,6.69,49.66,7.71-.99-.06-1.98-.12-2.97-.19-.17,2.33-.34,4.66-.5,7-15.92-1.15-31.77-3.67-47.35-7.57-1.13,4.54-2.27,9.07-3.4,13.61,16.37,4.1,33.01,6.75,49.74,7.95-.5,7-1.01,13.99-1.51,20.99,5.98.43,11.97.69,17.96.77.15-10.52.3-21.04.45-31.56.02-1.17.03-2.34.05-3.51.03-2.34.07-4.67.1-7.01.07-4.68.13-9.35.2-14.02-24.57-.35-49.11-4.24-72.8-11.66-1.39,4.46-2.79,8.93-4.18,13.39Zm-16.61,24.06c-21.9-7.57-43.12-17.77-63.17-30.6-2.51,3.94-5.02,7.88-7.54,11.82,21,13.43,43.21,24.11,66.14,32.03,1.52-4.42,3.05-8.84,4.57-13.26Zm9.14-26.52c1.52-4.42,3.05-8.84,4.57-13.26-23.52-8.13-46.12-19.78-67-34.98-2.74,3.78-5.49,7.57-8.23,11.35,17.77,12.93,36.73,23.43,56.43,31.51-.17-.07-.35-.14-.53-.21-2.67,6.48-5.33,12.97-8,19.46,5.26,2.17,10.56,4.18,15.91,6.02,2.28-6.63,4.57-13.26,6.85-19.89Zm-.89,29.23c-1.39,4.46-2.79,8.93-4.18,13.39,23.1,7.23,46.86,11.71,70.77,13.43.34-4.66.67-9.33,1.01-13.99-22.84-1.64-45.53-5.92-67.6-12.83Zm93.33,13.57c.07,4.67.13,9.35.2,14.02,23.96-.34,47.89-3.44,71.28-9.3-1.13-4.54-2.27-9.07-3.4-13.61-22.35,5.59-45.2,8.55-68.09,8.88Zm175.09-51.32s0,0,0-.01c-1.37-1.89-2.74-3.77-4.11-5.66h0c-1.37-1.89-2.74-3.78-4.12-5.67-1.83-2.52-3.65-5.04-5.48-7.55-2.29-3.16-4.58-6.31-6.87-9.47-2.74-3.78-5.49-7.57-8.23-11.35-20.88,15.19-43.48,26.85-67,34.98,1.52,4.42,3.05,8.84,4.57,13.26,20.02-6.92,39.41-16.26,57.72-28.04-.16.1-.32.21-.48.31,1.25,1.97,2.51,3.94,3.76,5.9-18.64,11.93-38.36,21.41-58.72,28.45,1.52,4.42,3.05,8.84,4.57,13.26,21.39-7.39,42.1-17.36,61.68-29.88,1.26,1.97,2.51,3.94,3.77,5.91-20.05,12.83-41.27,23.04-63.17,30.6,1.52,4.42,3.05,8.84,4.57,13.26,28.66-9.9,56.2-24.11,81.65-42.63-1.37-1.89-2.74-3.78-4.12-5.67Zm-112.11,22.03c1.13,4.54,2.27,9.07,3.4,13.61h0c1.7,6.8,3.4,13.61,5.1,20.41,5.85-1.46,11.67-3.1,17.44-4.91-3.49-11.16-6.97-22.31-10.46-33.47-5.13,1.61-10.29,3.06-15.48,4.36Zm-47.35,7.57c-.17-2.33-.34-4.66-.5-7,20.69-1.49,41.25-5.37,61.24-11.63-1.39-4.46-2.79-8.92-4.18-13.39-18.96,5.94-38.45,9.61-58.07,11.02-4.91.35-9.82.57-14.73.64.17,11.69.34,23.37.5,35.06,5.59-.08,11.17-.32,16.75-.72-.34-4.66-.67-9.33-1.01-13.99h0Zm0,0c.34,4.66.67,9.33,1.01,13.99,16.73-1.2,33.37-3.86,49.74-7.95-1.13-4.54-2.27-9.07-3.4-13.61-15.58,3.9-31.42,6.42-47.35,7.57Z"/>
    </g>
    <g id="circle_inner">
      <path class="cls-13" d="m279.56,239.8l6.51-71.6c-93.58,52.98-156.74,153.42-156.74,268.63,0,97.6,45.34,184.6,116.09,241.13l35.74-44.81c-58.26-46.03-95.66-117.3-95.66-197.32s36.72-149.97,94.06-196.03Zm158.27-111.47c-21.02,0-41.55,2.11-61.39,6.12l3.84,56.44c18.18-4.18,37.1-6.39,56.55-6.39,138.8,0,251.33,112.52,251.33,251.33,0,79.42-36.85,150.22-94.37,196.28l36.68,45.67c70.62-56.53,115.86-143.45,115.86-240.95,0-170.38-138.12-308.5-308.5-308.5Z"/>
    </g>
    <g id="circle_outer">
      <path class="cls-1" d="m437.33,112.33c-21.2,0-41.92,2.05-61.99,5.93l.47,6.95c19.75-3.84,40.14-5.88,61.01-5.88,175.35,0,317.5,142.15,317.5,317.5s-142.15,317.5-317.5,317.5S119.33,612.18,119.33,436.83c0-121.2,67.92-226.53,167.78-280.03l.74-8.11c-104.27,54.11-175.51,163.05-175.51,288.64,0,179.49,145.51,325,325,325s325-145.51,325-325S616.83,112.33,437.33,112.33Z"/>
    </g>
    <g id="circle_outer-2" data-name="circle_outer">
      <circle class="cls-9" cx="437.33" cy="437.33" r="437.33"/>
    </g>
  </g>
  <g id="ground" class="cls-4">
    <g id="ground-2" data-name="ground">
      <path d="m294.74,635.33c40.11,28.94,89.36,46,142.6,46s102.49-17.06,142.6-46h-285.19Z"/>
    </g>
  </g>
  <g id="clouds">
    <path class="cls-12" d="m619.78,277.39h-76.64c-3.33,0-6.03-2.7-6.03-6.03s2.7-6.03,6.03-6.03h30.05v-2h-44.32c-4.43,0-8.03,3.59-8.03,8.03s3.59,8.03,8.03,8.03h77.4c3.02.33,5.37,2.88,5.37,5.99,0,3.33-2.7,6.03-6.03,6.03v.02h-50.34v.02c-4.22.24-7.56,3.73-7.56,8s3.59,8.03,8.03,8.03h52.56v-2h-38.47c-3.33,0-6.03-2.7-6.03-6.03s2.7-6.03,6.03-6.03h49.61c.12,0,.24.02.37.02,4.43,0,8.03-3.59,8.03-8.03s-3.59-8.03-8.03-8.03Z"/>
    <path class="cls-14" d="m406.33,402.41c-3.33,0-6.03-2.7-6.03-6.03s2.7-6.03,6.03-6.03h49.61c.12,0,.24.02.37.02,4.43,0,8.03-3.59,8.03-8.03s-3.59-8.03-8.03-8.03h-90.92v2h77.4c3.02.33,5.37,2.88,5.37,5.99,0,3.33-2.7,6.03-6.03,6.03v.02h-50.34v.02c-4.22.24-7.56,3.73-7.56,8s3.59,8.03,8.03,8.03h168.08v-2h-154Z"/>
    <path class="cls-8" d="m273.79,335.89h-27.64c-3.33,0-6.03-2.7-6.03-6.03s2.7-6.03,6.03-6.03h30.05v-2h-44.32c-4.43,0-8.03,3.59-8.03,8.03s3.59,8.03,8.03,8.03h28.4c3.02.33,5.37,2.88,5.37,5.99,0,3.33-2.7,6.03-6.03,6.03v.02h-62.73v2h76.54c.12,0,.24.02.37.02,4.43,0,8.03-3.59,8.03-8.03s-3.59-8.03-8.03-8.03Z"/>
  </g>
  <g id="Shanghai_Center" data-name="Shanghai Center">
    <g id="upper">
      <path class="cls-3" d="m354.33,38.33c-9.37-14.55-42-18-42-18,0,0,52.58,395.52,69,464-15.56-116.79-21.72-362.31-27-446Z"/>
    </g>
    <g id="lower">
      <path class="cls-10" d="m381.33,510.33c-23.81-92.52-68-453-68-453,0,0-.87.06-6,3-.26,51.37-.7,56.46-1,98-6.69,80.83-13.12,242.9-6,477h91s-3.3-97.18-10-125Z"/>
    </g>
  </g>
  <g id="Oriental_Pearl" data-name="Oriental Pearl">
    <g id="bottom">
      <path d="m530.26,611.32c.68-1.17,1.07-2.53,1.07-3.98,0-4.41-3.58-7.99-7.99-8l-15.01-26-6.93,4h0s-10.14,0-10.14,0h0s-6.93-4-6.93-4l-15.01,26c-4.41,0-7.99,3.59-7.99,8,0,1.45.39,2.81,1.07,3.98l-24.82,42.99,6.93,4,24.81-42.97s0,0,.01,0c1.06,0,2.07-.21,2.99-.58l12.01,12.45v19.13h24v-19.12l12.01-12.46c.92.37,1.93.58,2.99.58,0,0,0,0,.01,0l17.9,31h9.24l-20.22-35.02Zm-45.93,7.24l-7.69-7.98c.44-.99.69-2.09.69-3.25,0-1.46-.4-2.82-1.08-4l8.08-14v29.22Zm31.7-7.97l-7.7,7.98v-29.23l8.08,14c-.68,1.18-1.08,2.54-1.08,4,0,1.16.25,2.26.7,3.25Z"/>
    </g>
    <g id="ladder">
      <g id="_矩形_9_拷贝_5" data-name="矩形 9 拷贝 5">
        <path class="cls-15" d="m499.33,406.33v17h-6v-17h-9v138h9v-2h6v2h9v-138h-9Zm0,123h-6v-10h6v10Zm0-23h-6v-7h6v7Zm0-20h-6v-8h6v8Zm0-21h-6v-8h6v8Zm0-21h-6v-8h6v8Z"/>
      </g>
    </g>
    <g id="middle">
      <rect x="491.33" y="325.33" width="10" height="49"/>
    </g>
    <g id="top_needle" data-name="top needle">
      <polygon class="cls-2" points="497.33 284.33 497.33 206.33 495.33 206.33 495.33 284.33 494.33 284.33 494.33 315.33 498.33 315.33 498.33 284.33 497.33 284.33"/>
    </g>
    <g id="ball_lower" data-name="ball lower">
      <path class="cls-11" d="m525.98,554.71c-2.22-14.37-14.65-25.38-29.64-25.38s-27.28,10.89-29.6,25.14c9.12-2.03,18.9-3.14,29.1-3.14s20.73,1.2,30.14,3.38Zm-59.21,9.71c2.42,14.14,14.73,24.91,29.56,24.91s27.14-10.77,29.56-24.91c-8.73-2.6-18.81-4.09-29.56-4.09s-20.84,1.49-29.56,4.09Z"/>
    </g>
    <g id="ball_middle" data-name="ball middle">
      <path class="cls-7" d="m520.66,384.59c-2.6-11.04-12.5-19.26-24.33-19.26s-21.63,8.13-24.29,19.08c7.57-1.35,15.54-2.08,23.79-2.08s16.95.79,24.83,2.26Zm-24.33,6.74c-8.81,0-17.18,1-24.71,2.79,1.83,12.01,12.2,21.21,24.71,21.21s22.89-9.2,24.71-21.21c-7.54-1.79-15.9-2.79-24.71-2.79Z"/>
    </g>
    <g id="ball_upper" data-name="ball upper">
      <path class="cls-6" d="m506.54,320.61c-.61-5.22-5.04-9.28-10.42-9.28s-9.82,4.06-10.42,9.28c3.31-.6,6.81-.92,10.42-.92s7.11.32,10.42.92Zm-20.51,4.1c1.25,4.4,5.29,7.62,10.09,7.62s8.89-3.27,10.11-7.71c-3.05-.66-6.39-1.04-9.9-1.04s-7.14.41-10.31,1.13Z"/>
    </g>
  </g>
</svg>