<?xml version="1.0" encoding="UTF-8" standalone="no"?><!DOCTYPE svg PUBLIC "-//W3C//DTD SVG 1.1//EN" "http://www.w3.org/Graphics/SVG/1.1/DTD/svg11.dtd"><svg width="100%" height="100%" viewBox="0 0 1280 720" version="1.1" xmlns="http://www.w3.org/2000/svg" xmlns:xlink="http://www.w3.org/1999/xlink" xml:space="preserve" xmlns:serif="http://www.serif.com/" style="fill-rule:evenodd;clip-rule:evenodd;stroke-linejoin:round;stroke-miterlimit:2;"><rect x="-320" y="-180" width="1920" height="1080"/><g><path d="M856.064,251.439l0,86.835l-5.354,-0l0,-95.926l4.016,-0l72.841,86.828l0,-86.828l5.354,-0l0,95.926l-4.015,-0l-72.842,-86.835Zm-170.474,80.006l41.435,-89.097l5.697,-0l-44.707,95.926l-5.024,-0l-44.371,-95.926l5.858,-0l41.112,89.097Zm315.504,-84.985l-43.032,0l-0,-4.112l91.425,-0l-0,4.112l-43.033,0l0,91.814l-5.36,-0l-0,-91.814Zm-461.956,0.472l-0,-4.629l78.396,-0l-0,4.629l-78.396,0Zm-0,46.324l-0,-8.406l78.396,0l-0,8.406l-78.396,0Zm-0,45.716l-0,-12.286l78.396,0l-0,12.286l-78.396,-0Zm213.138,-92.04l-0,-4.629l78.396,-0l-0,4.629l-78.396,0Zm-0,46.324l-0,-8.406l78.396,0l-0,8.406l-78.396,0Zm-0,45.716l-0,-12.286l78.396,0l-0,12.286l-78.396,-0Z" style="fill:#fff;fill-rule:nonzero;"/><path d="M769.165,439.56l0,42.146l-16.32,0l-0,-99.333l37.18,-0c6.24,-0 11.73,1.254 16.457,3.757c4.733,2.509 8.399,5.916 10.999,10.216c2.599,4.307 3.899,9.202 3.899,14.691c-0,5.768 -1.3,10.786 -3.899,15.041c-2.6,4.254 -6.266,7.565 -10.999,9.932c-3.945,1.972 -8.419,3.123 -13.424,3.453l34.852,42.243l-20.575,0l-33.967,-42.146l-4.203,-0Zm0,-43l0,29.518l20.007,-0c5.011,-0 8.916,-1.3 11.703,-3.906c2.794,-2.599 4.19,-6.22 4.19,-10.85c0,-4.164 -1.37,-7.663 -4.118,-10.501c-2.742,-2.839 -6.622,-4.261 -11.633,-4.261l-20.149,-0Zm102.735,73.792l51.697,-73.081l-48.432,-0l0,-14.898l70.1,-0l0,11.348l-51.697,73.081l50.559,-0l-0,14.904l-72.227,0l-0,-11.354Zm215.407,-57.194l0,68.548l-16.32,0l-0,-99.333l11.354,-0l52.506,68.541l-0,-68.541l16.32,-0l0,99.333l-11.354,0l-52.506,-68.548Zm-531.849,24.552l0,43.996l-16.32,0l-0,-99.333l16.32,-0l0,40.439l46.828,0l0,-40.439l16.314,-0l0,99.333l-16.314,0l0,-43.996l-46.828,0Zm130.41,45.412c-7.1,0 -13.721,-1.325 -19.87,-3.97c-6.15,-2.651 -11.543,-6.317 -16.179,-10.999c-4.63,-4.681 -8.251,-10.126 -10.85,-16.321c-2.606,-6.194 -3.906,-12.841 -3.906,-19.935c0,-7.1 1.3,-13.721 3.906,-19.87c2.599,-6.15 6.195,-11.562 10.779,-16.243c4.591,-4.688 9.939,-8.329 16.036,-10.928c6.104,-2.606 12.7,-3.906 19.8,-3.906c7.093,0 13.688,1.3 19.792,3.906c6.105,2.599 11.471,6.24 16.108,10.928c4.636,4.681 8.251,10.119 10.856,16.314c2.6,6.201 3.9,12.842 3.9,19.942c-0,7.093 -1.3,13.74 -3.9,19.935c-2.605,6.194 -6.201,11.613 -10.785,16.249c-4.591,4.636 -9.932,8.277 -16.036,10.928c-6.104,2.645 -12.655,3.97 -19.651,3.97Zm-0.284,-15.609c6.711,-0 12.602,-1.513 17.665,-4.539c5.063,-3.026 9.033,-7.217 11.917,-12.558c2.891,-5.347 4.333,-11.522 4.333,-18.519c-0,-5.205 -0.828,-9.958 -2.483,-14.264c-1.656,-4.3 -4.003,-8.038 -7.029,-11.212c-3.026,-3.169 -6.596,-5.6 -10.715,-7.307c-4.112,-1.701 -8.677,-2.554 -13.688,-2.554c-6.622,-0 -12.467,1.493 -17.53,4.474c-5.057,2.975 -9.033,7.113 -11.917,12.415c-2.884,5.296 -4.326,11.445 -4.326,18.448c-0,5.199 0.827,10.003 2.483,14.4c1.655,4.397 3.97,8.161 6.951,11.284c2.981,3.123 6.55,5.554 10.714,7.307c4.165,1.752 8.704,2.625 13.625,2.625Zm154.386,14.193l-0,-99.333l16.32,-0l0,99.333l-16.32,0Zm164.04,1.416c-7.093,0 -13.715,-1.325 -19.864,-3.97c-6.149,-2.651 -11.542,-6.317 -16.178,-10.999c-4.636,-4.681 -8.251,-10.126 -10.857,-16.321c-2.599,-6.194 -3.899,-12.841 -3.899,-19.935c-0,-7.1 1.3,-13.721 3.899,-19.87c2.606,-6.15 6.201,-11.562 10.786,-16.243c4.591,-4.688 9.932,-8.329 16.036,-10.928c6.104,-2.606 12.699,-3.906 19.793,-3.906c7.1,0 13.695,1.3 19.799,3.906c6.098,2.599 11.471,6.24 16.107,10.928c4.63,4.681 8.251,10.119 10.851,16.314c2.605,6.201 3.905,12.842 3.905,19.942c0,7.093 -1.3,13.74 -3.905,19.935c-2.6,6.194 -6.195,11.613 -10.78,16.249c-4.591,4.636 -9.938,8.277 -16.036,10.928c-6.104,2.645 -12.654,3.97 -19.657,3.97Zm-0.284,-15.609c6.718,-0 12.609,-1.513 17.672,-4.539c5.056,-3.026 9.033,-7.217 11.917,-12.558c2.884,-5.347 4.326,-11.522 4.326,-18.519c-0,-5.205 -0.828,-9.958 -2.483,-14.264c-1.656,-4.3 -3.996,-8.038 -7.023,-11.212c-3.026,-3.169 -6.601,-5.6 -10.714,-7.307c-4.112,-1.701 -8.678,-2.554 -13.695,-2.554c-6.622,-0 -12.461,1.493 -17.524,4.474c-5.063,2.975 -9.033,7.113 -11.917,12.415c-2.89,5.296 -4.332,11.445 -4.332,18.448c-0,5.199 0.828,10.003 2.483,14.4c1.655,4.397 3.977,8.161 6.957,11.284c2.981,3.123 6.551,5.554 10.715,7.307c4.158,1.752 8.703,2.625 13.618,2.625Z" style="fill:#fff;fill-rule:nonzero;"/><path d="M240.724,483.122l-17.459,0c0,-31.581 25.645,-57.225 57.226,-57.225c31.581,-0 57.225,25.644 57.225,57.225l-17.458,0c-0,-21.946 -17.821,-39.767 -39.767,-39.767c-21.946,0 -39.767,17.821 -39.767,39.767Zm-89.557,-6.466l0,-12.932c26.072,-0 38.733,-17.013 53.663,-33.443c17.22,-18.959 36.76,-37.685 75.661,-37.685c38.887,-0 58.59,18.719 75.887,37.672c15.008,16.43 27.656,33.456 53.436,33.456l0,12.932c-30.009,0 -45.522,-18.538 -62.987,-37.672c-15.169,-16.611 -32.234,-33.456 -66.336,-33.456c-34.09,0 -50.999,16.838 -66.091,33.443c-17.381,19.134 -32.887,37.685 -63.233,37.685Zm0,-72.744l0,-9.7c30.631,0 44.391,-10.889 59.049,-21.687c16.017,-11.794 32.997,-23.576 70.275,-23.576c37.271,0 54.374,11.775 70.455,23.569c14.724,10.799 28.477,21.694 58.868,21.694l0,9.7c-33.313,-0 -48.464,-11.736 -64.603,-23.57c-14.775,-10.837 -30.475,-21.694 -64.72,-21.694c-34.232,0 -49.816,10.851 -64.526,21.688c-16.069,11.833 -31.219,23.576 -64.798,23.576Zm0,-79.211l0,-6.466c31.646,-0 47.695,-4.785 63.737,-9.564c16.515,-4.92 33.023,-9.835 65.587,-9.835c32.563,0 49.072,4.915 65.586,9.835c16.043,4.779 32.092,9.564 63.737,9.564l0,6.466c-32.563,0 -49.072,-4.914 -65.586,-9.835c-16.043,-4.778 -32.092,-9.563 -63.737,-9.563c-31.646,-0 -47.695,4.785 -63.737,9.563c-16.515,4.921 -33.023,9.835 -65.587,9.835Zm0,-79.211l0,-3.233l258.647,0l0,3.233l-258.647,0Z" style="fill:#fff;fill-rule:nonzero;"/></g></svg>