<?xml version="1.0" encoding="UTF-8" standalone="no"?><!DOCTYPE svg PUBLIC "-//W3C//DTD SVG 1.1//EN" "http://www.w3.org/Graphics/SVG/1.1/DTD/svg11.dtd"><svg width="100%" height="100%" viewBox="0 0 2000 480" version="1.1" xmlns="http://www.w3.org/2000/svg" xmlns:xlink="http://www.w3.org/1999/xlink" xml:space="preserve" xmlns:serif="http://www.serif.com/" style="fill-rule:evenodd;clip-rule:evenodd;stroke-linejoin:round;stroke-miterlimit:2;"><path id="SEPL" d="M1515.27,220.347l34.925,-130.347l75,0l-35.38,132.041l-74.545,-1.694Zm45.62,109.653l285,0l-16.075,60l-360,0l16.075,-60l18.785,-70.106l75.46,-1.715l-19.245,71.821Zm-179.8,-112.7l18.03,-67.3l-285,0l16.075,-60l360,0l-34.56,128.992l-74.545,-1.692Zm-256.275,172.7l-75,0l32.285,-120.5l75.46,-1.715l-32.745,122.215Zm-835.695,-240l-16.077,60l285,0l-48.231,180l-360,0l16.077,-60l285,0l16.077,-60l-285,0l48.231,-180l360,0l-16.077,60l-285,0Z" style="fill-rule:nonzero;"/><path id="CF_Repeater" d="M717.655,138.047l10.435,20.069l-29.215,-19.1l18.78,-0.969Zm-33.2,-3.047l24.545,15l-48.165,-14.717c-4.938,-1.169 -9.57,-3.379 -13.585,-6.483c-12.35,-9.409 -16.877,-24.446 -10.113,-33.586c2.884,-3.896 7.356,-6.085 12.493,-6.593l58.37,-13.621l-23.545,15l420.545,22.5l-420.545,22.5Zm-38.67,-51.077c-16.5,2.956 -22.403,19.15 -12.534,35.429c5.711,9.42 14.944,16.035 24.434,19.057l-0.185,0.091l71.55,21.465l23.725,45.646l-5.29,-10.181c2.94,5.655 1.2,12.34 -3.965,15.064l9.255,-4.883l-62.705,33.086l11.77,-6.209c-6.622,3.358 -14.804,1.155 -18.845,-5.074l-65.387,-104.268c-15.726,-25.077 -6.04,-50.372 19.682,-54.165c12.525,-1.848 25.59,1.624 36.845,8.235l-27.875,6.628c-0.16,0.026 -0.32,0.051 -0.475,0.079Zm37.21,168.664c4.041,-6.229 12.223,-8.432 18.845,-5.073l-11.77,-6.209l62.705,33.086l-9.255,-4.883c5.165,2.724 6.905,9.408 3.965,15.063l5.29,-10.18l-23.725,45.644l-71.55,21.465l0.185,0.092c-9.49,3.021 -18.723,9.637 -24.434,19.057c-9.869,16.278 -3.968,32.472 12.534,35.428c0.155,0.029 0.315,0.054 0.475,0.08l27.875,6.627c-11.255,6.611 -24.32,10.083 -36.845,8.236c-25.722,-3.794 -35.408,-29.089 -19.682,-54.165l65.387,-104.268Zm45.095,69.3l-10.435,20.069l-18.78,-0.967l29.215,-19.102Zm-78.46,69.494c-5.137,-0.508 -9.61,-2.698 -12.493,-6.594c-6.764,-9.14 -2.237,-24.177 10.113,-33.587c4.015,-3.104 8.647,-5.315 13.585,-6.483l48.165,-14.717l-24.545,15l345.545,22.5l-345.545,22.5l23.545,15l-58.37,-13.619Zm105.785,-129.273l0,-44.069c0,-6.084 4.565,-10.641 10.055,-10.19l65.325,5.374c4.15,0.342 7.925,2.3 11.01,5.36l-12.9,3.66c-6.84,0.858 -12.31,8.369 -12.31,17.828c0,9.069 5.03,16.35 11.47,17.69l-0.065,0.239l13.67,3.695c-3.06,2.983 -6.785,4.886 -10.875,5.223l-75.38,6.207l10.055,-0.828c-5.49,0.453 -10.055,-4.104 -10.055,-10.189Zm94.585,-8.608l15,9.5l-35.5,-9.5l0,-0.05c-4.76,-0.557 -8.5,-6.365 -8.5,-13.45c0,-7.085 3.74,-12.894 8.5,-13.45l0,-0.05l35.5,-9.5l-15,9.5l855,13.5l-855,13.5Z" style="fill:#ee2929;fill-rule:nonzero;"/></svg>